<svg xmlns="http://www.w3.org/2000/svg" xmlns:xlink="http://www.w3.org/1999/xlink" width="181" height="201" viewBox="0 0 181 201">
    <defs>
        <path id="a" d="M.136.523h58.728V201H.136z"/>
        <path id="c" d="M.136.523h58.728V201H.136z"/>
        <path id="e" d="M.315.487h87.447v127.876H.315z"/>
        <path id="g" d="M.315.487h87.447v127.876H.315z"/>
    </defs>
    <g fill="none" fill-rule="evenodd">
        <path fill="#FFF" d="M-243-962h1440v4932H-243z"/>
        <path fill="#000" d="M48.096 52.347a4.207 4.207 0 0 0-4.202 4.201v23.91a4.207 4.207 0 0 0 4.202 4.202h60.46a4.207 4.207 0 0 0 4.201-4.203V56.548a4.207 4.207 0 0 0-4.202-4.2H48.096zm60.46 36.313h-60.46c-4.522 0-8.202-3.68-8.202-8.203V56.548c0-4.522 3.68-8.2 8.202-8.2h60.46c4.522 0 8.201 3.678 8.201 8.2v23.91c0 4.522-3.679 8.202-8.202 8.202z"/>
        <path fill="#000" d="M14.408 184.81h109.637c10.2 0 18.5-8.3 18.5-18.501V35.703c0-10.202-8.3-18.501-18.5-18.501H14.408V184.81zm109.637 4H12.408a2 2 0 0 1-2-2V15.202a2 2 0 0 1 2-2h111.637c12.407 0 22.5 10.093 22.5 22.501v130.606c0 12.407-10.093 22.501-22.5 22.501z"/>
        <path fill="#03BF3C" d="M12 44.238c-6.617 0-12-5.383-12-12s5.383-12 12-12 12 5.383 12 12a2 2 0 0 1-4 0c0-4.411-3.589-8-8-8s-8 3.589-8 8c0 4.41 3.589 8 8 8a2 2 0 0 1 0 4"/>
        <path fill="#03BF3C" d="M12 64.238c-6.617 0-12-5.383-12-12s5.383-12 12-12 12 5.383 12 12a2 2 0 0 1-4 0c0-4.411-3.589-8-8-8s-8 3.589-8 8c0 4.41 3.589 8 8 8a2 2 0 0 1 0 4"/>
        <path fill="#03BF3C" d="M12 84.238c-6.617 0-12-5.383-12-12s5.383-12 12-12 12 5.383 12 12a2 2 0 0 1-4 0c0-4.411-3.589-8-8-8s-8 3.589-8 8c0 4.41 3.589 8 8 8a2 2 0 0 1 0 4"/>
        <path fill="#03BF3C" d="M12 104.238c-6.617 0-12-5.383-12-12s5.383-12 12-12 12 5.383 12 12a2 2 0 0 1-4 0c0-4.411-3.589-8-8-8s-8 3.589-8 8c0 4.41 3.589 8 8 8a2 2 0 0 1 0 4"/>
        <path fill="#03BF3C" d="M12 124.238c-6.617 0-12-5.383-12-12s5.383-12 12-12 12 5.383 12 12a2 2 0 0 1-4 0c0-4.411-3.589-8-8-8s-8 3.589-8 8c0 4.41 3.589 8 8 8a2 2 0 0 1 0 4"/>
        <path fill="#03BF3C" d="M12 144.238c-6.617 0-12-5.383-12-12s5.383-12 12-12 12 5.383 12 12a2 2 0 0 1-4 0c0-4.411-3.589-8-8-8s-8 3.589-8 8c0 4.41 3.589 8 8 8a2 2 0 0 1 0 4"/>
        <path fill="#03BF3C" d="M12 164.238c-6.617 0-12-5.383-12-12s5.383-12 12-12 12 5.383 12 12a2 2 0 0 1-4 0c0-4.411-3.589-8-8-8s-8 3.589-8 8c0 4.41 3.589 8 8 8a2 2 0 0 1 0 4"/>
        <path fill="#03BF3C" d="M12 184.238c-6.617 0-12-5.383-12-12s5.383-12 12-12 12 5.383 12 12a2 2 0 0 1-4 0c0-4.411-3.589-8-8-8s-8 3.589-8 8c0 4.41 3.589 8 8 8a2 2 0 0 1 0 4"/>
        <path fill="#000" d="M12.408 187.537a2 2 0 0 1-2-2v-17.3a2 2 0 0 1 4 0v17.3a2 2 0 0 1-2 2"/>
        <path fill="#FFF" d="M38.514 194.515L71.794 2.376 92.486 5.96 59.206 198.1z"/>
        <g transform="translate(36 -.523)">
            <mask id="b" fill="#fff">
                <use xlink:href="#a"/>
            </mask>
            <path fill="#000" d="M5.263 193.102l16.006 2.772L53.738 8.42 37.73 5.648 5.263 193.102zM23.206 201a2.3 2.3 0 0 1-.405-.035L2.109 197.38a2.378 2.378 0 0 1-1.937-2.748L33.45 2.495A2.381 2.381 0 0 1 36.2.557L56.892 4.14a2.378 2.378 0 0 1 1.937 2.748l-33.28 192.139A2.379 2.379 0 0 1 23.206 201z" mask="url(#b)"/>
        </g>
        <path fill="#FFF" d="M52.634 171.588l10.839 1.878"/>
        <path fill="#009DE1" d="M63.475 175.388c-.109 0-.22-.01-.33-.028l-10.839-1.878a1.923 1.923 0 0 1 .656-3.787l10.84 1.878a1.921 1.921 0 0 1-.327 3.815"/>
        <path fill="#FFF" d="M54.015 187.051l5.912 1.024"/>
        <path fill="#009DE1" d="M59.93 189.998c-.11 0-.22-.01-.331-.028l-5.912-1.025a1.922 1.922 0 0 1 .657-3.787l5.912 1.025a1.921 1.921 0 0 1-.326 3.815"/>
        <path fill="#FFF" d="M57.925 141.043l10.838 1.878"/>
        <path fill="#009DE1" d="M68.766 144.843c-.11 0-.22-.01-.331-.028l-10.838-1.878a1.922 1.922 0 0 1 .656-3.787l10.839 1.878a1.921 1.921 0 0 1-.326 3.815"/>
        <path fill="#FFF" d="M59.306 156.506l5.912 1.023"/>
        <path fill="#009DE1" d="M65.22 159.452c-.109 0-.219-.01-.33-.028l-5.912-1.024a1.923 1.923 0 0 1-1.566-2.221 1.928 1.928 0 0 1 2.222-1.566l5.911 1.024a1.921 1.921 0 0 1-.325 3.815"/>
        <path fill="#FFF" d="M63.215 110.499l10.838 1.877"/>
        <path fill="#009DE1" d="M74.056 114.297c-.109 0-.219-.01-.33-.028l-10.839-1.877a1.923 1.923 0 0 1 .656-3.787l10.84 1.877a1.921 1.921 0 0 1-.327 3.815"/>
        <path fill="#FFF" d="M64.597 125.961l5.912 1.023"/>
        <path fill="#009DE1" d="M70.511 128.907c-.109 0-.219-.01-.33-.028l-5.912-1.024a1.922 1.922 0 0 1 .655-3.787l5.912 1.024a1.921 1.921 0 0 1-.325 3.815"/>
        <path fill="#FFF" d="M68.506 79.954l10.839 1.877"/>
        <path fill="#009DE1" d="M79.347 83.752c-.109 0-.219-.01-.33-.028l-10.839-1.877a1.923 1.923 0 0 1 .655-3.787l10.84 1.877a1.921 1.921 0 0 1-.326 3.815"/>
        <path fill="#FFF" d="M69.887 95.415L75.8 96.44"/>
        <path fill="#009DE1" d="M75.802 98.362c-.11 0-.22-.01-.331-.028l-5.912-1.025a1.922 1.922 0 0 1 .657-3.787l5.912 1.025a1.921 1.921 0 0 1-.326 3.815"/>
        <path fill="#FFF" d="M73.797 49.408l10.838 1.878"/>
        <path fill="#009DE1" d="M84.638 53.208c-.11 0-.22-.01-.331-.029l-10.838-1.878a1.922 1.922 0 0 1 .656-3.787l10.839 1.878a1.921 1.921 0 0 1-.326 3.816"/>
        <path fill="#FFF" d="M75.178 64.87l5.912 1.025"/>
        <path fill="#009DE1" d="M81.092 67.817c-.109 0-.22-.01-.33-.028l-5.912-1.025a1.922 1.922 0 1 1 .656-3.787l5.912 1.025a1.921 1.921 0 0 1-.326 3.815"/>
        <path fill="#FFF" d="M79.087 18.863l10.838 1.877"/>
        <path fill="#009DE1" d="M89.928 22.662c-.109 0-.219-.01-.33-.028l-10.839-1.877a1.923 1.923 0 0 1-1.565-2.222 1.923 1.923 0 0 1 2.221-1.565l10.84 1.877a1.921 1.921 0 0 1-.327 3.815"/>
        <path fill="#FFF" d="M80.469 34.326l5.912 1.023"/>
        <path fill="#009DE1" d="M86.383 37.27c-.109 0-.219-.01-.33-.027l-5.912-1.024a1.922 1.922 0 0 1 .655-3.787l5.912 1.024a1.921 1.921 0 0 1-.325 3.815"/>
        <g transform="translate(36 -.523)">
            <mask id="d" fill="#fff">
                <use xlink:href="#c"/>
            </mask>
            <path fill="#000" d="M5.263 193.102l16.006 2.772L53.738 8.42 37.73 5.648 5.263 193.102zM23.206 201a2.3 2.3 0 0 1-.405-.035L2.109 197.38a2.378 2.378 0 0 1-1.937-2.748L33.45 2.495A2.381 2.381 0 0 1 36.2.557L56.892 4.14a2.378 2.378 0 0 1 1.937 2.748l-33.28 192.139A2.379 2.379 0 0 1 23.206 201z" mask="url(#d)"/>
        </g>
        <path fill="#FFF" d="M120.281 139.248l20.941-53.597 15.056 40.073-35.997 13.523zm-24.589 28.215l82.693-31.07L143.8 44.341 95.692 167.462z"/>
        <g transform="translate(93 41.477)">
            <mask id="f" fill="#fff">
                <use xlink:href="#e"/>
            </mask>
            <path fill="#000" d="M48.179 50.817L31.436 93.67l28.78-10.814L48.18 50.817zm-20.897 49.331a2.38 2.38 0 0 1-2.215-3.243l20.94-53.597a2.379 2.379 0 0 1 2.216-1.512h.016c.984.006 1.863.62 2.21 1.542L65.504 83.41a2.377 2.377 0 0 1-1.39 3.061L28.118 99.996a2.37 2.37 0 0 1-.835.152zm23.473-90.64L6.847 121.883l75.477-28.357-31.57-84.02zM2.693 128.362a2.379 2.379 0 0 1-2.215-3.243L48.584 2A2.38 2.38 0 0 1 50.799.486h.016a2.378 2.378 0 0 1 2.21 1.541L87.61 94.081a2.377 2.377 0 0 1-1.39 3.061l-82.692 31.07a2.383 2.383 0 0 1-.836.151z" mask="url(#f)"/>
        </g>
        <path fill="#FFF" d="M111.313 161.594l-1.862-4.955"/>
        <path fill="#009DE1" d="M111.313 163.595c-.81 0-1.57-.495-1.873-1.297l-1.861-4.955a2 2 0 1 1 3.744-1.408l1.862 4.955a2 2 0 0 1-1.873 2.705"/>
        <path fill="#FFF" d="M130.034 154.56l-1.86-4.955"/>
        <path fill="#009DE1" d="M130.034 156.561c-.81 0-1.57-.495-1.872-1.298l-1.86-4.955a2 2 0 0 1 3.744-1.406l1.86 4.955a2 2 0 0 1-1.872 2.704"/>
        <path fill="#FFF" d="M120.673 158.078l-3.101-8.253"/>
        <path fill="#009DE1" d="M120.673 160.079a2 2 0 0 1-1.872-1.298l-3.101-8.253a2 2 0 0 1 3.744-1.406l3.1 8.253a2 2 0 0 1-1.871 2.704"/>
        <path fill="#FFF" d="M148.757 147.526l-1.862-4.955"/>
        <path fill="#009DE1" d="M148.757 149.527c-.81 0-1.57-.495-1.872-1.297l-1.862-4.955a2 2 0 1 1 3.744-1.408l1.862 4.955a2 2 0 0 1-1.872 2.705"/>
        <path fill="#FFF" d="M139.395 151.043l-3.1-8.253"/>
        <path fill="#009DE1" d="M139.395 153.044a2 2 0 0 1-1.871-1.298l-3.101-8.253a2 2 0 0 1 3.744-1.406l3.1 8.253a2 2 0 0 1-1.871 2.704"/>
        <path fill="#FFF" d="M167.478 140.492l-1.86-4.955"/>
        <path fill="#009DE1" d="M167.478 142.493c-.81 0-1.57-.495-1.871-1.298l-1.862-4.955a2 2 0 0 1 3.744-1.406l1.862 4.955a2 2 0 0 1-1.873 2.704"/>
        <path fill="#FFF" d="M158.117 144.01l-3.1-8.254"/>
        <path fill="#009DE1" d="M158.117 146.01a2 2 0 0 1-1.872-1.298l-3.1-8.253a2 2 0 0 1 3.743-1.406l3.101 8.253a2 2 0 0 1-1.872 2.704"/>
        <path fill="#FFF" d="M172.698 121.26l-4.955 1.86"/>
        <path fill="#009DE1" d="M167.743 125.121a2 2 0 0 1-.703-3.872l4.955-1.861a2 2 0 0 1 1.406 3.743l-4.955 1.862a1.993 1.993 0 0 1-.703.129"/>
        <path fill="#FFF" d="M165.664 102.537l-4.955 1.861"/>
        <path fill="#009DE1" d="M160.709 106.4a2 2 0 0 1-.703-3.873l4.955-1.861a2 2 0 1 1 1.406 3.744l-4.955 1.86a1.993 1.993 0 0 1-.703.13"/>
        <path fill="#FFF" d="M169.18 111.898l-8.252 3.1"/>
        <path fill="#009DE1" d="M160.928 117a2 2 0 0 1-.703-3.874l8.253-3.1a2 2 0 0 1 1.406 3.745l-8.253 3.1a1.993 1.993 0 0 1-.703.129"/>
        <path fill="#FFF" d="M158.63 83.815l-4.955 1.86"/>
        <path fill="#009DE1" d="M153.675 87.677a2 2 0 0 1-.703-3.873l4.955-1.86a2 2 0 1 1 1.406 3.743l-4.955 1.861a1.993 1.993 0 0 1-.703.13"/>
        <path fill="#FFF" d="M162.147 93.176l-8.254 3.101"/>
        <path fill="#009DE1" d="M153.894 98.278a2 2 0 0 1-.703-3.873l8.253-3.101a2 2 0 0 1 1.406 3.745l-8.253 3.1a1.993 1.993 0 0 1-.703.129"/>
        <path fill="#FFF" d="M151.596 65.093l-4.955 1.861"/>
        <path fill="#009DE1" d="M146.64 68.956a2 2 0 0 1-.702-3.874l4.955-1.86a2 2 0 0 1 1.406 3.744l-4.955 1.86a1.993 1.993 0 0 1-.703.13"/>
        <path fill="#FFF" d="M155.112 74.454l-8.253 3.1"/>
        <path fill="#009DE1" d="M146.86 79.555a2 2 0 0 1-.704-3.873l8.253-3.1a2 2 0 0 1 1.406 3.745l-8.253 3.1a1.993 1.993 0 0 1-.703.128"/>
        <g transform="translate(93 41.477)">
            <mask id="h" fill="#fff">
                <use xlink:href="#g"/>
            </mask>
            <path fill="#000" d="M48.179 50.817L31.436 93.67l28.78-10.814L48.18 50.817zm-20.897 49.331a2.38 2.38 0 0 1-2.215-3.243l20.94-53.597a2.379 2.379 0 0 1 2.216-1.512h.016c.984.006 1.863.62 2.21 1.542L65.504 83.41a2.377 2.377 0 0 1-1.39 3.061L28.118 99.996a2.37 2.37 0 0 1-.835.152zm23.473-90.64L6.847 121.883l75.477-28.357-31.57-84.02zM2.693 128.362a2.379 2.379 0 0 1-2.215-3.243L48.584 2A2.38 2.38 0 0 1 50.799.486h.016a2.378 2.378 0 0 1 2.21 1.541L87.61 94.081a2.377 2.377 0 0 1-1.39 3.061l-82.692 31.07a2.383 2.383 0 0 1-.836.151z" mask="url(#h)"/>
        </g>
    </g>
</svg>
