<?xml version="1.0" encoding="UTF-8"?>
<svg width="498px" height="355px" viewBox="0 0 498 355" version="1.1" xmlns="http://www.w3.org/2000/svg" xmlns:xlink="http://www.w3.org/1999/xlink">
    <!-- Generator: Sketch 50.2 (55047) - http://www.bohemiancoding.com/sketch -->
    <title>Bird Footer Copy</title>
    <desc>Created with Sketch.</desc>
    <defs></defs>
    <g id="Page-1" stroke="none" stroke-width="1" fill="none" fill-rule="evenodd">
        <g id="Bird-Footer-Copy" transform="translate(249.000000, 178.000000) scale(-1, 1) translate(-249.000000, -178.000000) " fill="#FFFFFF">
            <path d="M449.451759,134.905032 C443.625014,151.783931 432.776913,165.246424 419.922559,177.158636 C392.469437,202.59844 359.966069,219.656959 325.686987,233.809002 C303.515257,242.962413 280.205867,247.128041 256.727332,250.898865 C230.36793,255.132001 203.897771,258.733452 177.947083,265.320339 C143.287577,274.118728 114.022627,292.05124 88.5932163,316.838261 C76.7868332,328.347232 65.7443075,340.534299 55.2796409,353.259023 C53.9902928,354.826181 53.0741454,355.647734 50.9186107,354.375322 C34.5519564,344.716201 18.1136717,335.178837 1.67598888,325.639664 C0.138642978,324.746986 -0.711893341,324.176179 0.771880209,322.269068 C20.0440821,297.501937 41.7962626,275.4918 69.2999466,259.775612 C90.2184449,247.822412 112.831997,241.115577 136.547092,237.699172 C157.944732,234.617295 179.537399,233.995253 201.055426,232.444972 C222.859373,230.8748 244.47672,227.736866 266.129581,224.905734 C286.39257,222.256031 306.442474,218.526194 326.104129,212.822943 C381.588833,196.728226 421.838523,162.0886 449.168849,111.667689 C450.060919,110.022172 450.971047,108.386903 452.283269,106 C453.949429,116.503578 452.590256,125.813102 449.451759,134.905032 Z" id="Fill-1"></path>
            <path d="M345.492356,75.14706 C336.148533,75.92826 327.001396,78.44286 317.485623,78.12726 C325.63002,74.70426 334.565386,73.92846 343.854306,70.64046 C338.50274,69.34386 333.732183,69.75726 329.113063,66.60246 C336.612496,65.89386 343.361383,65.45646 350.052953,64.57866 C361.02276,63.13926 371.966623,61.49166 382.897213,59.77326 C387.851786,58.99446 392.09322,56.72826 395.602206,53.02266 C404.710126,43.40406 414.26934,34.25706 424.81621,26.18226 C430.454963,21.86586 436.462956,18.16866 443.148493,15.66966 C444.891523,15.01806 446.28462,13.98666 447.579373,12.70146 C450.220766,10.07886 452.73727,7.32786 455.804616,5.14746 C467.371723,-3.07314 480.83028,-0.18354 487.65579,12.17586 C489.153866,14.88906 490.522226,17.40006 493.448996,18.96606 C495.173926,19.88946 496.664763,21.47766 497.524513,23.47086 C495.094286,24.77766 492.470993,24.81066 489.931563,24.90486 C481.21581,25.22886 472.95316,32.61606 473.062966,41.20806 C473.289216,58.94286 463.127273,69.52806 448.915153,77.55726 C445.100276,79.71246 444.772666,84.24426 448.48739,86.88666 C450.93813,88.62906 453.610896,89.66406 456.69031,89.92926 C461.123603,90.31026 465.49415,91.12986 469.826686,94.59906 C462.863013,93.60306 456.79529,93.48606 450.611123,93.99546 C444.665273,94.48446 438.669346,94.78626 432.00734,95.52186 C434.520223,92.13786 437.74685,91.57986 441.720403,90.18366 C435.664143,86.87706 433.13135,80.07666 425.204153,80.31306 C419.205813,80.49126 413.13266,79.06686 407.368413,77.30346 C393.400643,73.03026 379.64585,73.48926 365.54595,76.99446 C352.60445,80.21106 339.369126,82.26366 326.2599,84.81006 C326.08976,84.84306 325.869543,84.61986 325.202256,84.26826 C332.04285,80.38506 339.33172,78.45666 346.340643,75.86586 C347.00974,74.82906 348.1971,75.01626 349.162433,74.68326 C349.944353,74.18586 351.024923,74.46006 351.63972,73.88466 C350.741356,74.26986 349.609503,74.37546 348.594696,74.81286 C347.569633,75.01626 346.511386,74.90166 345.492356,75.14706" id="Fill-3"></path>
        </g>
    </g>
</svg>