<?xml version="1.0" encoding="UTF-8"?>
<svg width="61px" height="61px" viewBox="0 0 61 61" version="1.1" xmlns="http://www.w3.org/2000/svg" xmlns:xlink="http://www.w3.org/1999/xlink">
    <!-- Generator: Sketch 51 (57462) - http://www.bohemiancoding.com/sketch -->
    <title>Oval 2</title>
    <desc>Created with Sketch.</desc>
    <defs></defs>
    <g id="Page-1" stroke="none" stroke-width="1" fill="none" fill-rule="evenodd">
        <circle id="Oval-2" fill="#FFFFFF" cx="30.5" cy="30.5" r="30.5"></circle>
        <g id="DONATE" transform="translate(11.000000, 14.000000)">
            <path d="M33.556965,22.6351056 C33.4224945,22.5787629 33.2904601,22.521926 33.140886,22.4685487 C31.9087271,22.0128651 31.4010523,21.6891418 31.4010523,21.2186311 C31.4010523,20.8069343 31.7055597,20.3809046 32.6483148,20.3809046 C33.6919227,20.3809046 34.373045,20.7189606 34.7355307,20.8954021 L35.1706109,19.2337876 C34.6775525,18.998038 34.0251757,18.7781039 33.0541623,18.7484499 L33.0541623,17.4545455 L31.6329651,17.4545455 L31.6329651,18.8517448 C30.0816824,19.145814 29.1832636,20.1604763 29.1832636,21.4692077 C29.1832636,22.8960611 30.2414879,23.630987 31.7922834,24.1603115 C31.8614675,24.1840347 31.9204202,24.207758 31.9847321,24.230987 C32.917743,24.5739853 33.3435662,24.9169837 33.3435662,25.4398832 C33.3435662,26.0131945 32.763784,26.3517448 31.9374726,26.3517448 C31.3094564,26.3517448 30.7228533,26.2133593 30.2195633,26.0220908 C29.9671876,25.9262094 29.7343003,25.8174779 29.5311329,25.7042983 L29.1856996,27.0708552 L29.0960526,27.4252209 C29.6470893,27.7341171 30.58887,28.0133593 31.5603706,28.0430133 L31.5603706,29.4545455 L32.9810805,29.4545455 L32.9810805,27.9397184 C34.6629361,27.6456492 35.5618421,26.5430133 35.5618421,25.2337876 C35.5613549,24.0105586 34.9825471,23.2321402 33.556965,22.6351056 Z" id="Shape"></path>
            <path d="M21.8612569,22.7488939 C21.8612569,17.0434491 26.420305,12.4187202 32.0436555,12.4187202 C34.4206929,12.4187202 36.6027035,13.2517519 38.335056,14.6367518 C39.4837587,10.6525188 38.4623717,6.3794822 35.4640144,3.35454185 C31.0160696,-1.13473474 23.8234453,-1.11538441 19.3983887,3.39759633 C14.9742857,-1.11538441 7.78118457,-1.13521849 3.33323974,3.35454185 C-1.11518192,7.84285091 -1.21865576,15.0774556 3.6727484,20.0417828 C9.13349712,25.5808148 17.8691692,34.4476198 19.3983887,36 C20.1022015,35.2859728 22.329035,33.0253705 25.060363,30.2539195 C23.0948368,28.3701648 21.8612569,25.7090107 21.8612569,22.7488939 Z" id="Shape" fill="#D0021B" fill-rule="nonzero"></path>
            <path d="M38.0636309,16.4060012 C36.5390384,15.0274076 34.5341873,14.1818182 32.3289474,14.1818182 C27.5677872,14.1818182 23.7078947,18.0898652 23.7078947,22.9093347 C23.7078947,25.4270845 24.7671614,27.6893044 26.4521612,29.2819774 C27.9926499,30.7381078 30.0548238,31.6363636 32.3289474,31.6363636 C37.0905893,31.6363636 40.95,27.7292919 40.95,22.9093347 C40.95,20.3223383 39.8310021,18.004526 38.0636309,16.4060012 Z M32.973467,27.3352687 L32.973467,28.8299236 L31.5688188,28.8299236 L31.5688188,27.4371881 C30.6087832,27.4079289 29.677168,27.1324053 29.1323611,26.8276225 L29.2209946,26.4779756 L29.5625225,25.1296165 C29.763393,25.2412889 29.9941291,25.3480848 30.24317,25.4431771 C30.74077,25.6318986 31.3207413,25.7684413 31.9416575,25.7684413 C32.7581454,25.7684413 33.3318546,25.4343993 33.3318546,24.8687224 C33.3318546,24.3522984 32.9108455,24.0143553 31.9883828,23.6759244 C31.9247979,23.6530048 31.8665117,23.6295975 31.7981098,23.6061901 C30.2643649,23.0839143 29.218586,22.3582874 29.218586,20.9509223 C29.218586,19.6601062 30.1073295,18.658468 31.6405927,18.3683148 L31.6405927,16.9897212 L33.0452409,16.9897212 L33.0452409,18.2663954 C34.0052765,18.2956546 34.6502779,18.5126599 35.1377621,18.7452702 L34.7076007,20.3847578 C34.349213,20.2106659 33.6753094,19.8771116 32.6439816,19.8771116 C31.7118848,19.8771116 31.41082,20.297468 31.41082,20.7036825 C31.41082,21.1679277 31.9127553,21.4873401 33.1309842,21.9369557 C33.2793489,21.9891345 33.409409,22.0457022 33.5423592,22.1012946 C34.9518245,22.6903788 35.5240886,23.4584314 35.5240886,24.6648837 C35.525052,25.9566751 34.6367902,27.0451155 32.973467,27.3352687 Z" id="Shape" fill="#03BF3C" fill-rule="nonzero"></path>
        </g>
    </g>
</svg>