<?xml version="1.0" encoding="UTF-8"?>
<svg width="22px" height="22px" viewBox="0 0 22 22" version="1.1" xmlns="http://www.w3.org/2000/svg" xmlns:xlink="http://www.w3.org/1999/xlink">
    <!-- Generator: Sketch 51 (57462) - http://www.bohemiancoding.com/sketch -->
    <title>Oval 2</title>
    <desc>Created with Sketch.</desc>
    <defs></defs>
    <g id="Page-1" stroke="none" stroke-width="1" fill="none" fill-rule="evenodd">
        <circle id="Oval-2" fill="#FFFFFF" cx="11" cy="11" r="11"></circle>
        <g id="DONATE" transform="translate(4.000000, 5.000000)">
            <path d="M11.9846304,8.17378813 C11.9366052,8.15344216 11.88945,8.13291773 11.8360307,8.1136426 C11.395974,7.94909016 11.2146615,7.83219011 11.2146615,7.66228346 C11.2146615,7.51361515 11.3234142,7.3597711 11.6601124,7.3597711 C12.0328295,7.3597711 12.2760875,7.48184689 12.4055467,7.54556188 L12.5609325,6.94553442 C12.3848402,6.86040263 12.1518485,6.78098198 11.805058,6.77027358 L11.805058,6.3030303 L11.2974875,6.3030303 L11.2974875,6.80757451 C10.743458,6.91376616 10.4225941,7.28017198 10.4225941,7.75276946 C10.4225941,8.26802207 10.8005314,8.53341196 11.3543869,8.72455694 C11.3790955,8.73312366 11.4001501,8.74169038 11.4231186,8.75007863 C11.7563368,8.87393914 11.9084165,8.99779966 11.9084165,9.18662448 C11.9084165,9.39365359 11.7013514,9.51590784 11.4062402,9.51590784 C11.1819487,9.51590784 10.9724476,9.4659353 10.7927012,9.39686611 C10.702567,9.36224227 10.6193929,9.32297813 10.5468332,9.28210773 L10.4234642,9.77558659 L10.3914474,9.90355199 C10.5882462,10.0150978 10.9245964,10.1159353 11.2715609,10.1266437 L11.2715609,10.6363636 L11.7789573,10.6363636 L11.7789573,10.0893428 C12.37962,9.98315112 12.7006579,9.58497704 12.7006579,9.11220109 C12.7004839,8.67047951 12.4937668,8.38938395 11.9846304,8.17378813 Z" id="Shape"></path>
            <path d="M7.80759175,8.21487837 C7.80759175,6.15457885 9.43582321,4.48453786 11.4441627,4.48453786 C12.2931046,4.48453786 13.0723941,4.78535487 13.6910914,5.28549371 C14.1013424,3.84674292 13.7365613,2.30370191 12.6657194,1.21136233 C11.0771677,-0.409765321 8.5083733,-0.402777702 6.92799595,1.22690979 C5.34795919,-0.402777702 2.77899449,-0.409940012 1.19044277,1.21136233 C-0.398279257,2.83214061 -0.435234201,5.44463674 1.31169586,7.23731044 C3.26196326,9.23751644 6.38184614,12.4394182 6.92799595,13 C7.17935769,12.7421569 7.97465535,11.9258282 8.95012965,10.9250265 C8.248156,10.2447817 7.80759175,9.28380942 7.80759175,8.21487837 Z" id="Shape" fill="#D0021B" fill-rule="nonzero"></path>
            <path d="M13.5941539,5.92438931 C13.0496566,5.42656385 12.3336383,5.12121212 11.5460526,5.12121212 C9.84563827,5.12121212 8.46710526,6.53245133 8.46710526,8.27281532 C8.46710526,9.18200274 8.84541477,9.99891548 9.44720043,10.5740474 C9.99737496,11.0998722 10.7338656,11.4242424 11.5460526,11.4242424 C13.246639,11.4242424 14.625,10.0133554 14.625,8.27281532 C14.625,7.33862216 14.2253579,6.5016344 13.5941539,5.92438931 Z M11.7762382,9.87106925 L11.7762382,10.4108057 L11.2745781,10.4108057 L11.2745781,9.90787347 C10.9317083,9.89730767 10.5989886,9.79781301 10.4044147,9.68775256 L10.4360695,9.5614912 L10.5580438,9.07458374 C10.6297832,9.11490989 10.712189,9.15347507 10.8011321,9.18781394 C10.9788464,9.25596337 11.1859791,9.30527046 11.4077348,9.30527046 C11.6993377,9.30527046 11.9042338,9.1846442 11.9042338,8.98037199 C11.9042338,8.79388555 11.7538734,8.67185051 11.4244224,8.54963938 C11.4017135,8.54136284 11.380897,8.53291019 11.3564678,8.52445755 C10.8087018,8.33585795 10.4352093,8.07382601 10.4352093,7.56561085 C10.4352093,7.0994828 10.7526177,6.73778011 11.3002117,6.63300256 L11.3002117,6.1351771 L11.8018717,6.1351771 L11.8018717,6.59619834 C12.1447416,6.60676415 12.3750993,6.68512719 12.5492008,6.76912533 L12.3955717,7.36116254 C12.2675761,7.29829601 12.0268962,7.17784585 11.6585649,7.17784585 C11.3256732,7.17784585 11.21815,7.32964123 11.21815,7.47632981 C11.21815,7.64397389 11.3974126,7.75931725 11.8324943,7.92167844 C11.8854818,7.94052079 11.9319318,7.96094801 11.979414,7.98102304 C12.4827945,8.19374789 12.6871745,8.47110024 12.6871745,8.90676355 C12.6875186,9.37324379 12.3702822,9.7662917 11.7762382,9.87106925 Z" id="Shape" fill="#03BF3C" fill-rule="nonzero"></path>
        </g>
    </g>
</svg>