<svg xmlns="http://www.w3.org/2000/svg" xmlns:xlink="http://www.w3.org/1999/xlink" width="194" height="199" viewBox="0 0 194 199">
    <defs>
        <path id="a" d="M0 .894h193.56V199H0z"/>
    </defs>
    <g fill="none" fill-rule="evenodd">
        <path fill="#FFF" d="M-1010-964H430v4932h-1440z"/>
        <path fill="#FFF" d="M2.139 161.494h108.638V14.275H2.139z"/>
        <g transform="translate(0 -.894)">
            <mask id="b" fill="#fff">
                <use xlink:href="#a"/>
            </mask>
            <path fill="#000" d="M4.279 160.248h104.358V17.309H4.279v142.939zm106.498 4.279H2.14A2.14 2.14 0 0 1 0 162.388V15.169a2.14 2.14 0 0 1 2.14-2.14h108.637a2.14 2.14 0 0 1 2.14 2.14v147.219a2.14 2.14 0 0 1-2.14 2.139z" mask="url(#b)"/>
            <path fill="#03BF3C" d="M92.258 36.26H20.564a2.14 2.14 0 1 1 0-4.278h71.694a2.14 2.14 0 1 1 0 4.279" mask="url(#b)"/>
            <path fill="#000" d="M85.969 136.067v-16.125H83.57v26.381a1.2 1.2 0 0 1-1.2 1.2H72.78a1.2 1.2 0 0 1-1.2-1.2v-7.195c0-4.627-3.765-8.394-8.393-8.394-4.627 0-8.394 3.767-8.394 8.394v7.195a1.2 1.2 0 0 1-1.2 1.2H44a1.2 1.2 0 0 1-1.2-1.2V124.74a6.002 6.002 0 0 0-5.995-5.996 6.002 6.002 0 0 0-5.995 5.996v11.88a2.844 2.844 0 0 1-1.582 2.558 2.833 2.833 0 0 1-2.585-.013 2.835 2.835 0 0 1-1.52-2.105l-2.731-16.153a55.385 55.385 0 0 1-.826-5.76H84.77v-2.398H21.383a84.797 84.797 0 0 1-.106-2.399h20.325v-2.398h-20.37a329.75 329.75 0 0 1-.015-3.597c0-9.258 7.53-16.788 16.788-16.788h.455l6.828-6.068a13.935 13.935 0 0 1 9.27-3.525c.605 0 1.172.236 1.599.663a2.27 2.27 0 0 1 .595 2.146l-2.295 9.182h11.127c11.385 0 21.016 7.6 24.122 17.987H44v2.398h46.294c.153.788.273 1.587.35 2.4h-3.476v2.397h3.598a48.276 48.276 0 0 1-4.413 20.09l-.384.831zm7.195-20.92c0-15.209-12.371-27.58-27.58-27.58h-8.058l1.55-6.204a4.674 4.674 0 0 0-1.224-4.422 4.62 4.62 0 0 0-3.294-1.366c-4.01 0-7.868 1.468-10.863 4.131l-6.153 5.467c-10.365.247-18.723 8.755-18.723 19.181 0 5.61 0 10.91 1.216 16.987l2.722 16.11a5.2 5.2 0 0 0 2.792 3.847 5.2 5.2 0 0 0 4.753.026 5.235 5.235 0 0 0 2.906-4.705v-11.88a3.602 3.602 0 0 1 3.597-3.598 3.602 3.602 0 0 1 3.598 3.598v21.584A3.602 3.602 0 0 0 44 149.921h9.593a3.603 3.603 0 0 0 3.598-3.598v-7.195a6.002 6.002 0 0 1 5.995-5.996 6.003 6.003 0 0 1 5.996 5.996v7.195a3.602 3.602 0 0 0 3.597 3.598h9.593a3.602 3.602 0 0 0 3.597-3.598v-4.533l2.563-5.55a50.702 50.702 0 0 0 4.632-21.094z" mask="url(#b)"/>
            <path fill="#009DE1" d="M40.753 101.689l-1.55-.573-1.55.573.07-1.65-1.024-1.296 1.59-.447.915-1.374.916 1.374 1.59.447-1.024 1.297.067 1.648zm5.07-4.281l-4.2-1.18-2.42-3.63-2.42 3.63-4.198 1.178 2.704 3.423-.176 4.358 4.09-1.514 4.09 1.513-.174-4.357 2.704-3.421zM53.876 98.297l.916-1.374.917 1.374 1.589.446-1.024 1.297.069 1.65-1.551-.575-1.549.574.068-1.651-1.024-1.296 1.589-.445zm-3.174 6.89l4.09-1.514 4.09 1.514-.175-4.358 2.704-3.423-4.199-1.178-2.42-3.63-2.419 3.63-4.2 1.178 2.704 3.423-.175 4.358zM69.464 98.297l.917-1.374.916 1.374 1.59.446-1.025 1.297.07 1.65-1.55-.575-1.55.574.068-1.651-1.025-1.296 1.59-.445zm-3.174 6.89l4.091-1.514 4.09 1.514-.175-4.358L77 97.406l-4.2-1.178-2.419-3.63-2.42 3.63-4.2 1.178 2.704 3.423-.175 4.358z" mask="url(#b)"/>
            <path fill="#03BF3C" d="M92.258 50.865H20.564a2.14 2.14 0 1 1 0-4.279h71.694a2.14 2.14 0 1 1 0 4.28M92.258 65.47H20.564a2.14 2.14 0 1 1 0-4.278h71.694a2.14 2.14 0 1 1 0 4.279" mask="url(#b)"/>
            <path fill="#FFF" d="M153.036 173.485l-104.88-28.324L86.54 3.034 191.42 31.358z" mask="url(#b)"/>
            <path fill="#000" d="M50.78 143.653l100.748 27.21 37.27-137.997L88.047 5.657 50.778 143.653zm102.257 31.973a2.12 2.12 0 0 1-.559-.076l-104.88-28.324a2.137 2.137 0 0 1-1.508-2.623L84.473 2.476A2.14 2.14 0 0 1 87.096.968l104.881 28.325a2.134 2.134 0 0 1 1.508 2.623l-38.384 142.127a2.141 2.141 0 0 1-2.064 1.583z" mask="url(#b)"/>
            <path fill="#009DE1" d="M126.803 61.052l1.046-.915.443 1.317 1.195.712-1.117.829-.306 1.356-1.135-.806-1.385.126.417-1.326-.548-1.278 1.39-.015zm-4.092 4.903l3.656-.331 2.993 2.128.814-3.581 2.949-2.187-3.154-1.88-1.171-3.482-2.763 2.418-3.671.036 1.446 3.375-1.1 3.504zM138.499 64.21l1.046-.915.443 1.318 1.195.71-1.118.83-.306 1.357-1.135-.807-1.385.126.418-1.326-.548-1.278 1.39-.014zm-4.093 4.903l3.657-.331 2.993 2.128.814-3.58 2.948-2.188-3.154-1.88-1.17-3.482-2.764 2.418-3.671.036 1.447 3.376-1.1 3.503zM113.717 57.907l1.39-.014 1.047-.916.443 1.32 1.194.711-1.117.828-.307 1.356-1.134-.806-1.385.125.418-1.326-.55-1.278zm3.947 6.685l.815-3.58 2.949-2.189-3.155-1.88-1.17-3.48-2.764 2.418-3.672.037 1.446 3.375-1.098 3.503 3.656-.33 2.993 2.126z" mask="url(#b)"/>
            <path fill="#000" d="M140.414 94.45l-.948 1.7a1.012 1.012 0 0 1-1.147.484l-5.3-1.432a1.01 1.01 0 0 1-.71-1.237l.177-.66a40.294 40.294 0 0 0 1.327-12.86l-2.014.117c.034.593.051 1.186.057 1.778l-15.17-4.098-.528 1.95 2.36.637a106.636 106.636 0 0 1-3.445 6.776l-.949 1.701a1.01 1.01 0 0 1-1.146.484l-5.299-1.432a1.009 1.009 0 0 1-.712-1.237l.177-.659a40.276 40.276 0 0 0 1.33-12.86l-1.498.086c-.847-1.053-1.36-2.367-1.69-3.754l37.081 10.015.526-1.949-37.995-10.26c-.058-.479-.11-.955-.149-1.42l-.062-.729 5.595 1.51.527-1.949-6.3-1.702-.295-3.473a2.696 2.696 0 0 0-1.978-2.369 2.691 2.691 0 0 0-2.356.48l-1.888 1.48a2.605 2.605 0 0 1-2.274.463 2.582 2.582 0 0 1-1.865-1.993 9.128 9.128 0 0 1 1.645-7.275 4.629 4.629 0 0 0 .864-2.054l1.028-6.64c.193-1.254.837-2.358 1.767-3.03.521-.375 1.023-.558 1.521-.57-.064.782-.059 1.58.035 2.384l2.006-.235c-.49-4.166 1.64-8.075 5.876-10.865l.24 1.183c.948 4.687.305 8.09-2.026 10.707l1.507 1.344a11.712 11.712 0 0 0 1.477-2.1c2.732 1.08 4.49 4.052 4.187 7.165a3.835 3.835 0 0 0 2.825 4.08l26.928 7.271c4.837 1.307 7.71 6.305 6.403 11.141a104.19 104.19 0 0 1-1.445 4.84l-35.933-9.706-.527 1.95 35.827 9.675c-.22.638-.445 1.275-.677 1.91l-2.538-.687-.527 1.95 2.347.633a105.66 105.66 0 0 1-6.249 13.34m3.846-36.995l-26.929-7.273a1.815 1.815 0 0 1-1.338-1.934c.39-4.029-1.804-7.758-5.36-9.208.802-2.386.857-5.173.181-8.503l-.804-3.965-1.422.818c-4.032 2.317-6.639 5.494-7.57 9.064-1.034-.069-2.07.247-3.042.95-1.367.985-2.307 2.573-2.583 4.357l-1.028 6.64a2.568 2.568 0 0 1-.483 1.151 11.143 11.143 0 0 0-2.008 8.885 4.588 4.588 0 0 0 3.317 3.544 4.635 4.635 0 0 0 4.046-.823l1.89-1.48c.384-.303 1.032-.017 1.074.471l.535 6.341c.243 2.875.756 6.134 2.707 8.522.278.338.673.672 1.071 1a38.21 38.21 0 0 1-1.319 9.924l-.177.66a3.03 3.03 0 0 0 2.134 3.712l5.3 1.432a3.025 3.025 0 0 0 3.435-1.448l.95-1.702a108.966 108.966 0 0 0 3.663-7.224l11.32 3.057a38.247 38.247 0 0 1-1.284 8.357l-.178.66a3.032 3.032 0 0 0 2.135 3.712l5.3 1.432a3.025 3.025 0 0 0 3.434-1.448l.95-1.703a107.675 107.675 0 0 0 9.908-24.362c1.597-5.91-1.914-12.019-7.825-13.616" mask="url(#b)"/>
            <path fill="#03BF3C" d="M147.035 126.82c-.185 0-.372-.024-.559-.075l-69.215-18.694a2.138 2.138 0 1 1 1.116-4.13l69.215 18.693a2.14 2.14 0 1 1-.557 4.206M143.227 140.92c-.185 0-.371-.024-.559-.075l-69.214-18.693a2.138 2.138 0 1 1 1.116-4.13l69.215 18.692a2.14 2.14 0 1 1-.557 4.206M139.42 155.02c-.185 0-.372-.025-.56-.076l-69.214-18.692a2.139 2.139 0 1 1 1.115-4.13l69.216 18.691a2.14 2.14 0 1 1-.557 4.206" mask="url(#b)"/>
            <path fill="#FFF" d="M89.693 153.03c0-24.503 19.863-44.366 44.365-44.366 24.503 0 44.366 19.863 44.366 44.366 0 24.502-19.863 44.365-44.366 44.365-24.502 0-44.365-19.863-44.365-44.365" mask="url(#b)"/>
            <path fill="#000" d="M134.059 110.269c-23.578 0-42.761 19.183-42.761 42.762 0 23.578 19.183 42.76 42.76 42.76 23.58 0 42.763-19.182 42.763-42.76 0-23.58-19.183-42.762-42.762-42.762m0 88.73c-25.348 0-45.97-20.621-45.97-45.968 0-25.35 20.622-45.971 45.97-45.971 25.349 0 45.97 20.622 45.97 45.97S159.409 199 134.06 199" mask="url(#b)"/>
            <path fill="#000" d="M133.929 174.007a1.603 1.603 0 0 1-1.604-1.604v-46.77a1.603 1.603 0 1 1 3.208 0v46.77c0 .886-.717 1.604-1.604 1.604" mask="url(#b)"/>
            <path fill="#000" d="M112.043 138.86c-3.798 0-6.682-1.46-6.86-1.554a1.605 1.605 0 0 1 1.471-2.852c.052.027 5.2 2.593 10.103.09 1.53-.782 2.731-1.609 3.894-2.409 3.073-2.113 5.975-4.109 13.278-4.109a1.604 1.604 0 0 1 0 3.21c-6.306 0-8.579 1.563-11.459 3.544-1.19.818-2.537 1.745-4.254 2.622-2.136 1.091-4.27 1.458-6.173 1.458" mask="url(#b)"/>
            <path fill="#000" d="M155.814 138.86c-1.903 0-4.036-.367-6.173-1.459-1.718-.876-3.065-1.804-4.254-2.62-2.88-1.982-5.154-3.546-11.458-3.546a1.604 1.604 0 1 1 0-3.209c7.302 0 10.203 1.996 13.276 4.11 1.162.8 2.364 1.626 3.894 2.407 4.949 2.527 10.049-.06 10.099-.086a1.605 1.605 0 1 1 1.475 2.85c-.178.092-3.063 1.553-6.86 1.553M109.066 162.176a1.605 1.605 0 0 1-1.553-2.015l6.126-23.255a1.604 1.604 0 1 1 3.104.819l-6.126 23.255a1.607 1.607 0 0 1-1.55 1.196" mask="url(#b)"/>
            <path fill="#000" d="M122.457 162.176a1.607 1.607 0 0 1-1.551-1.196l-6.126-23.255a1.605 1.605 0 0 1 3.104-.82l6.126 23.256a1.605 1.605 0 0 1-1.553 2.015M145.177 162.176a1.605 1.605 0 0 1-1.553-2.015l6.126-23.255a1.605 1.605 0 0 1 3.104.819l-6.126 23.255a1.607 1.607 0 0 1-1.551 1.196" mask="url(#b)"/>
            <path fill="#000" d="M158.568 162.176a1.607 1.607 0 0 1-1.55-1.196l-6.128-23.255a1.605 1.605 0 0 1 3.104-.82l6.127 23.256a1.605 1.605 0 0 1-1.553 2.015" mask="url(#b)"/>
            <path fill="#03BF3C" d="M108.138 162.505v1.988c0 .595.483 1.078 1.078 1.078h13.352a1.08 1.08 0 0 0 1.078-1.078v-1.988h-15.508zm14.43 6.275h-13.352a4.291 4.291 0 0 1-4.287-4.287V160.9c0-.887.718-1.605 1.605-1.605h18.716c.887 0 1.605.718 1.605 1.605v3.592a4.291 4.291 0 0 1-4.287 4.287z" mask="url(#b)"/>
            <path fill="#FFF" d="M158.548 167.176h-13.352a2.683 2.683 0 0 1-2.682-2.683V160.9h18.718v3.592a2.684 2.684 0 0 1-2.684 2.683" mask="url(#b)"/>
            <path fill="#009DE1" d="M144.118 162.505v1.988c0 .595.483 1.078 1.078 1.078h13.352a1.08 1.08 0 0 0 1.08-1.078v-1.988h-15.51zm14.43 6.275h-13.352a4.291 4.291 0 0 1-4.287-4.287V160.9c0-.887.718-1.605 1.605-1.605h18.717c.887 0 1.605.718 1.605 1.605v3.592a4.292 4.292 0 0 1-4.288 4.287z" mask="url(#b)"/>
            <path fill="#000" d="M126.305 178.822h15.509v-1.988a1.08 1.08 0 0 0-1.08-1.079h-13.351a1.08 1.08 0 0 0-1.078 1.08v1.987zm17.113 3.21H124.7a1.604 1.604 0 0 1-1.605-1.606v-3.592a4.292 4.292 0 0 1 4.287-4.288h13.352a4.293 4.293 0 0 1 4.288 4.288v3.592c0 .887-.718 1.605-1.605 1.605z" mask="url(#b)"/>
        </g>
    </g>
</svg>
