<svg xmlns="http://www.w3.org/2000/svg" xmlns:xlink="http://www.w3.org/1999/xlink" width="198" height="188" viewBox="0 0 198 188">
    <defs>
        <path id="a" d="M.312.9h100.95v30.659H.312z"/>
    </defs>
    <g fill="none" fill-rule="evenodd">
        <path fill="#FFF" d="M-1004-2405H436v4932h-1440zM38 134V39v95z"/>
        <path fill="#009DE1" d="M38.492 137.09a2.188 2.188 0 0 1-2.188-2.186V39.443a2.188 2.188 0 0 1 4.376 0v95.461c0 1.207-.98 2.186-2.188 2.186"/>
        <path fill="#FFF" d="M161.976 40.69v95.46"/>
        <path fill="#009DE1" d="M161.976 138.337a2.188 2.188 0 0 1-2.188-2.186V40.689a2.188 2.188 0 0 1 4.376 0v95.462c0 1.206-.98 2.186-2.188 2.186"/>
        <path fill="#000" d="M98.764 165.907a2.188 2.188 0 0 1-2.187-2.186V2.584a2.188 2.188 0 0 1 4.375 0v161.137c0 1.206-.98 2.186-2.188 2.186"/>
        <path fill="#FFF" d="M2.188 36.645s20.101 10.407 39.882.315c19.78-10.09 23.973-21.85 56.694-21.85"/>
        <path fill="#009DE1" d="M23.25 43.582c-12.21 0-21.494-4.699-22.068-4.996a2.184 2.184 0 0 1-.935-2.947 2.19 2.19 0 0 1 2.946-.937c.19.099 19.377 9.752 37.882.31 5.47-2.79 9.706-5.703 13.803-8.518 10.596-7.282 19.745-13.571 43.886-13.571a2.187 2.187 0 1 1 0 4.372c-22.78 0-31 5.649-41.405 12.801-4.214 2.897-8.569 5.89-14.295 8.811-6.854 3.498-13.7 4.675-19.814 4.675"/>
        <path fill="#FFF" d="M195.34 36.645s-20.1 10.407-39.88.315c-19.781-10.09-23.974-21.85-56.695-21.85"/>
        <g transform="translate(96.265 12.023)">
            <mask id="b" fill="#fff">
                <use xlink:href="#a"/>
            </mask>
            <path fill="#009DE1" d="M78.014 31.559c-6.114 0-12.96-1.177-19.814-4.675-5.727-2.92-10.082-5.914-14.296-8.81C33.5 10.92 25.28 5.271 2.5 5.271A2.186 2.186 0 1 1 2.5.9c24.14 0 33.29 6.289 43.885 13.57 4.097 2.816 8.333 5.728 13.804 8.52 18.504 9.44 37.692-.211 37.882-.31a2.19 2.19 0 0 1 2.946.94 2.183 2.183 0 0 1-.935 2.943c-.575.297-9.86 4.996-22.068 4.996" mask="url(#b)"/>
        </g>
        <path fill="#FFF" d="M66.225 107.783c0 20.338-8.858 30.717-29.213 30.717s-29.21-10.379-29.21-30.717c0-20.337 13.483-39.117 29.21-39.117 15.729 0 29.213 18.78 29.213 39.117"/>
        <path fill="#000" d="M37.012 70.306c-14.429 0-27.57 17.863-27.57 37.477 0 20.11 8.502 29.077 27.57 29.077 19.068 0 27.572-8.967 27.572-29.077 0-19.614-13.142-37.477-27.572-37.477m0 69.833c-20.76 0-30.852-10.584-30.852-32.356 0-21.71 14.417-40.756 30.852-40.756 16.435 0 30.853 19.046 30.853 40.756 0 21.772-10.091 32.356-30.853 32.356"/>
        <path fill="#FFF" d="M23.508 52.131s1.528 2.036 8.665 3.564c7.135 1.528 5.048-3.564 5.048-3.564s7.183 6.111 11.26 0l-3.803 17.823-2.125-.169a24.255 24.255 0 0 0-12.618-.029l-2.272.198-4.155-17.823z"/>
        <path fill="#000" d="M42.833 68.163l.54.043 2.574-12.056c-.378.121-.768.21-1.174.267-2.163.3-4.293-.437-5.895-1.263a3.55 3.55 0 0 1-.594 1.008c-1.205 1.436-3.316 1.808-6.456 1.137-2.536-.545-4.431-1.16-5.838-1.75l2.948 12.647.714-.061a25.902 25.902 0 0 1 13.181.028m-15.171 3.43a1.64 1.64 0 0 1-1.597-1.268L21.91 52.503a1.639 1.639 0 0 1 .905-1.857 1.639 1.639 0 0 1 1.964.448c.106.108 1.755 1.717 7.738 2.998 2.151.459 3.066.18 3.248-.033.188-.219.085-.928-.066-1.32a1.648 1.648 0 0 1 .574-1.937 1.64 1.64 0 0 1 2.013.08c.884.747 3.693 2.617 6.042 2.285 1.107-.156 2.019-.792 2.788-1.945a1.64 1.64 0 0 1 2.97 1.251l-3.805 17.822a1.638 1.638 0 0 1-1.734 1.293l-2.123-.168a1.546 1.546 0 0 1-.3-.052 22.664 22.664 0 0 0-11.766-.028c-.092.025-.186.04-.28.049l-2.273.198a1.59 1.59 0 0 1-.143.006"/>
        <path fill="#FFF" d="M37.985 53.658l-1.736 10.44"/>
        <path fill="#000" d="M36.252 65.737a1.638 1.638 0 0 1-1.62-1.908l1.734-10.44a1.646 1.646 0 0 1 1.889-1.347 1.638 1.638 0 0 1 1.348 1.885l-1.735 10.44a1.643 1.643 0 0 1-1.616 1.37"/>
        <path fill="#03BF3C" d="M37.012 118.3c-4.532 0-8.218-3.685-8.218-8.214a1.64 1.64 0 0 1 3.281 0 4.94 4.94 0 0 0 4.937 4.934 4.94 4.94 0 0 0 4.938-4.934 4.94 4.94 0 0 0-4.544-4.916 1.514 1.514 0 0 1-.394.051c-4.532 0-8.218-3.683-8.218-8.211 0-4.528 3.686-8.211 8.218-8.211s8.22 3.683 8.22 8.21a1.64 1.64 0 0 1-3.282 0 4.94 4.94 0 0 0-4.938-4.931 4.94 4.94 0 0 0-4.937 4.932 4.94 4.94 0 0 0 4.544 4.917c.125-.034.258-.051.393-.051 4.532 0 8.22 3.683 8.22 8.21 0 4.529-3.688 8.213-8.22 8.213"/>
        <path fill="#03BF3C" d="M37.012 122.822a1.64 1.64 0 0 1-1.64-1.64V86.047a1.64 1.64 0 0 1 3.281 0v35.137a1.64 1.64 0 0 1-1.64 1.639"/>
        <path fill="#FFF" d="M189.707 107.783c0 20.338-8.856 30.717-29.21 30.717-20.356 0-29.212-10.379-29.212-30.717 0-20.337 13.484-39.117 29.211-39.117 15.729 0 29.211 18.78 29.211 39.117"/>
        <path fill="#000" d="M160.496 70.306c-14.429 0-27.57 17.863-27.57 37.477 0 20.11 8.502 29.077 27.57 29.077 19.068 0 27.57-8.967 27.57-29.077 0-19.614-13.14-37.477-27.57-37.477m0 69.833c-20.76 0-30.852-10.584-30.852-32.356 0-21.71 14.417-40.756 30.852-40.756 16.435 0 30.852 19.046 30.852 40.756 0 21.772-10.091 32.356-30.852 32.356"/>
        <path fill="#FFF" d="M146.992 52.131s1.528 2.036 8.664 3.564c7.136 1.528 5.05-3.564 5.05-3.564s7.182 6.111 11.26 0l-3.804 17.823-2.125-.169a24.255 24.255 0 0 0-12.618-.029l-2.272.198-4.155-17.823z"/>
        <path fill="#000" d="M166.317 68.163l.54.043 2.574-12.056c-.378.121-.768.21-1.174.267-2.163.3-4.294-.437-5.895-1.263a3.55 3.55 0 0 1-.594 1.008c-1.204 1.436-3.312 1.809-6.457 1.137-2.535-.545-4.43-1.159-5.837-1.75l2.948 12.647.714-.061a25.902 25.902 0 0 1 13.181.028m-15.171 3.43a1.64 1.64 0 0 1-1.597-1.268l-4.155-17.822a1.639 1.639 0 0 1 .905-1.857 1.64 1.64 0 0 1 1.964.448c.106.109 1.756 1.717 7.736 2.998 2.154.46 3.068.18 3.25-.033.188-.219.085-.928-.066-1.32a1.647 1.647 0 0 1 .575-1.937 1.638 1.638 0 0 1 2.012.08c.885.747 3.692 2.617 6.042 2.285 1.107-.156 2.02-.792 2.788-1.945a1.64 1.64 0 0 1 2.97 1.251l-3.805 17.822a1.642 1.642 0 0 1-1.733 1.293l-2.124-.168a1.546 1.546 0 0 1-.3-.052 22.664 22.664 0 0 0-11.766-.028c-.092.025-.186.04-.28.049l-2.273.198a1.59 1.59 0 0 1-.143.006"/>
        <path fill="#FFF" d="M161.47 53.658l-1.737 10.44"/>
        <path fill="#000" d="M159.736 65.737a1.638 1.638 0 0 1-1.62-1.908l1.735-10.44c.148-.893 1-1.495 1.888-1.347a1.638 1.638 0 0 1 1.348 1.885l-1.735 10.44a1.643 1.643 0 0 1-1.616 1.37"/>
        <path fill="#03BF3C" d="M160.496 118.3c-4.532 0-8.218-3.685-8.218-8.214a1.64 1.64 0 0 1 3.281 0 4.94 4.94 0 0 0 4.937 4.934 4.94 4.94 0 0 0 4.938-4.934 4.94 4.94 0 0 0-4.544-4.916 1.514 1.514 0 0 1-.394.051c-4.532 0-8.218-3.683-8.218-8.211 0-4.528 3.686-8.211 8.218-8.211s8.22 3.683 8.22 8.21a1.64 1.64 0 0 1-3.282 0 4.94 4.94 0 0 0-4.938-4.931 4.94 4.94 0 0 0-4.937 4.932 4.94 4.94 0 0 0 4.543 4.917c.126-.034.259-.051.394-.051 4.532 0 8.22 3.683 8.22 8.21 0 4.529-3.688 8.213-8.22 8.213"/>
        <path fill="#03BF3C" d="M160.496 122.822a1.64 1.64 0 0 1-1.64-1.64V86.047a1.64 1.64 0 0 1 3.281 0v35.137a1.64 1.64 0 0 1-1.64 1.639"/>
        <path fill="#FFF" d="M59.59 148.21H13.55c-5.11 0-9.252-4.139-9.252-9.244v-12.379h64.543v12.379c0 5.105-4.142 9.244-9.252 9.244"/>
        <path fill="#000" d="M6.486 128.773v10.192c0 3.893 3.17 7.06 7.065 7.06h46.038c3.895 0 7.064-3.167 7.064-7.06v-10.192H6.486zm53.103 21.623H13.551c-6.309 0-11.44-5.127-11.44-11.43v-12.38c0-1.206.98-2.185 2.187-2.185h64.543c1.207 0 2.188.98 2.188 2.186v12.378c0 6.304-5.132 11.431-11.44 11.431z"/>
        <path fill="#FFF" d="M183.659 148.21H137.62c-5.11 0-9.252-4.139-9.252-9.244v-12.379h64.542v12.379c0 5.105-4.142 9.244-9.251 9.244"/>
        <path fill="#000" d="M130.556 128.773v10.192c0 3.893 3.169 7.06 7.064 7.06h46.039c3.894 0 7.063-3.167 7.063-7.06v-10.192h-60.166zm53.103 21.623H137.62c-6.309 0-11.44-5.127-11.44-11.43v-12.38c0-1.206.98-2.185 2.188-2.185h64.542c1.208 0 2.188.98 2.188 2.186v12.378c0 6.304-5.132 11.431-11.44 11.431z"/>
        <path fill="#FFF" d="M75.745 164.192h46.039c5.11 0 9.252 4.138 9.252 9.243v12.379H66.493v-12.379c0-5.105 4.142-9.243 9.252-9.243"/>
        <path fill="#000" d="M68.68 183.628h60.168v-10.193c0-3.892-3.169-7.057-7.064-7.057H75.745c-3.895 0-7.064 3.165-7.064 7.057v10.193zM131.037 188H66.493a2.188 2.188 0 0 1-2.188-2.186v-12.379c0-6.302 5.131-11.43 11.44-11.43h46.039c6.309 0 11.44 5.128 11.44 11.43v12.379c0 1.207-.98 2.186-2.188 2.186z"/>
    </g>
</svg>
