<svg xmlns="http://www.w3.org/2000/svg" width="141" height="153" viewBox="0 0 141 153">
    <g fill="none" fill-rule="evenodd">
        <path fill="#FFF" d="M-649-3748H791v4932H-649z"/>
        <path fill="#FFF" d="M139 63.443L71 2 3 63.443V151h136z"/>
        <path stroke="#009DE1" stroke-linecap="round" stroke-linejoin="round" stroke-width="3.843" d="M139 63.443L71 2 3 63.443V151h136z"/>
        <path fill="#FFF" d="M16 144h111V17H16z"/>
        <path stroke="#000" stroke-linecap="round" stroke-linejoin="round" stroke-width="3.843" d="M16 144h111V17H16zM31.083 53h27.635M31.083 64h27.635M31.083 74h27.635M31.083 85h27.635M31.083 96h83.672M31.083 107h83.672"/>
        <path stroke="#03BF3C" stroke-linecap="round" stroke-linejoin="round" stroke-width="3.843" d="M71 83h44V53H71zM54 40h33V30H54z"/>
        <path fill="#FFF" d="M138.936 64.179L71 125.589 3.064 64.18l-.384 86.36h135.872z"/>
        <path stroke="#009DE1" stroke-linecap="round" stroke-linejoin="round" stroke-width="3.843" d="M138.936 64.179L71 125.589 3.064 64.18l-.384 86.36h135.872z"/>
        <path fill="#FFF" d="M139 151L71 90 3 151z"/>
        <path stroke="#009DE1" stroke-linecap="round" stroke-linejoin="round" stroke-width="3.843" d="M139 151L71 90 3 151z"/>
    </g>
</svg>
