<svg xmlns="http://www.w3.org/2000/svg" xmlns:xlink="http://www.w3.org/1999/xlink" width="180" height="181" viewBox="0 0 180 181">
    <defs>
        <path id="a" d="M0 .852h95.6V80.55H0z"/>
    </defs>
    <g fill="none" fill-rule="evenodd">
        <path fill="#FFF" d="M-243-2415h1440v4932H-243z"/>
        <path fill="#000" d="M117.002 100.45c.158 0 .315.019.471.056l12.396 3a2 2 0 0 1 1.289 2.894 11.526 11.526 0 0 0-1.375 5.456c0 6.34 5.159 11.5 11.5 11.5s11.5-5.16 11.5-11.5c0-1.903-.475-3.79-1.375-5.456a2.002 2.002 0 0 1 .171-2.165 2.004 2.004 0 0 1 2.044-.732l12.356 2.887 9.654-2.49V34.752h-68.131l2.371 9.375c.08.318.081.652.002.97l-2.16 8.726a15.455 15.455 0 0 1 2.621-.223c8.547 0 15.5 6.954 15.5 15.5 0 8.547-6.953 15.5-15.5 15.5-1.361 0-2.698-.175-3.997-.524l-2.344 9.295 2.398 9.655 10.127-2.517c.158-.04.32-.06.482-.06m24.281 26.907c-8.547 0-15.5-6.953-15.5-15.5 0-1.71.285-3.411.835-5.021l-9.609-2.325-11.593 2.88a2.019 2.019 0 0 1-1.514-.226 2.003 2.003 0 0 1-.91-1.233l-3-12.083a2.002 2.002 0 0 1 .002-.97l3-11.9a1.996 1.996 0 0 1 1.06-1.305 1.993 1.993 0 0 1 1.681-.036c1.462.639 3.009.963 4.601.963 6.341 0 11.5-5.16 11.5-11.5s-5.159-11.5-11.5-11.5c-1.59 0-3.138.325-4.602.965a2 2 0 0 1-2.742-2.313l2.88-11.63-2.878-11.38a2.004 2.004 0 0 1 .362-1.72c.378-.486.96-.77 1.578-.77h72.699a2 2 0 0 1 2 2v72.698a2 2 0 0 1-1.5 1.937l-11.631 3a1.99 1.99 0 0 1-.955.01l-9.19-2.147c.282 1.178.426 2.389.426 3.606 0 8.547-6.953 15.5-15.5 15.5"/>
        <path fill="#FFF" d="M80.1 24.85c-1.921 0-3.746.406-5.4 1.13l3-11.865L74.7 2H2v72.7l12.518-3 12.55 3a13.416 13.416 0 0 1-2.218-7.406c0-7.456 6.044-13.5 13.5-13.5s13.5 6.044 13.5 13.5c0 2.737-.82 5.28-2.22 7.405l12.388 3 12.682-3-3-12.333 3-11.648a13.434 13.434 0 0 0 5.4 1.132c7.457 0 13.5-6.045 13.5-13.5 0-7.456-6.043-13.5-13.5-13.5"/>
        <g transform="translate(0 -.852)">
            <mask id="b" fill="#fff">
                <use xlink:href="#a"/>
            </mask>
            <path fill="#009DE1" d="M52.61 74.214l9.413 2.279 10.257-2.426-2.524-10.377a1.986 1.986 0 0 1 .006-.972l3-11.648a2 2 0 0 1 2.74-1.333c1.462.64 3.008.964 4.598.964 6.341 0 11.5-5.16 11.5-11.5 0-6.341-5.159-11.5-11.5-11.5-1.59 0-3.138.325-4.599.963a2.002 2.002 0 0 1-2.742-2.322l2.878-11.38-2.504-10.11H4v68.162l10.051-2.41c.307-.072.626-.072.931 0l8.534 2.04a15.475 15.475 0 0 1-.667-4.498c0-8.547 6.953-15.5 15.5-15.5s15.5 6.953 15.5 15.5c0 2.1-.424 4.159-1.239 6.068m9.407 6.336c-.158 0-.316-.02-.47-.057l-12.387-3a1.999 1.999 0 0 1-1.2-3.043 11.434 11.434 0 0 0 1.89-6.304c0-6.341-5.16-11.5-11.5-11.5-6.342 0-11.5 5.159-11.5 11.5 0 2.247.653 4.426 1.89 6.304a2.002 2.002 0 0 1-2.137 3.045l-12.085-2.888-12.053 2.888A2.002 2.002 0 0 1 0 75.55V2.852a2 2 0 0 1 2-2h72.7a2 2 0 0 1 1.94 1.519l3 12.115c.08.319.078.653-.002.97l-2.14 8.464a15.541 15.541 0 0 1 2.602-.22c8.547 0 15.5 6.954 15.5 15.5 0 8.548-6.953 15.5-15.5 15.5-1.364 0-2.704-.175-4.007-.526L73.76 63.23l2.882 11.846a2 2 0 0 1-1.483 2.419l-12.682 3a1.98 1.98 0 0 1-.46.054" mask="url(#b)"/>
        </g>
        <path fill="#000" d="M34.235 176.148h68.111l-2.348-9.027a2.007 2.007 0 0 1-.009-.974l2.19-9.064a15.55 15.55 0 0 1-2.595.216c-8.547 0-15.5-6.953-15.5-15.5s6.953-15.5 15.5-15.5c1.338 0 2.651.169 3.925.504l2.363-9.674-2.385-9.273-10.517 2.538a2.002 2.002 0 0 1-.93.002l-12.636-3a2.002 2.002 0 0 1-1.209-3.045 11.45 11.45 0 0 0 1.89-6.306c0-6.34-5.16-11.5-11.5-11.5s-11.5 5.16-11.5 11.5c0 2.247.653 4.426 1.888 6.306a1.998 1.998 0 0 1-2.164 3.037l-11.335-2.882-11.239 2.542v69.1zm70.698 4H32.235a2 2 0 0 1-2-2V105.45a2 2 0 0 1 1.56-1.951l13.265-3c.31-.069.63-.065.935.012l7.737 1.967a15.438 15.438 0 0 1-.647-4.433c0-8.546 6.953-15.5 15.5-15.5 8.546 0 15.5 6.954 15.5 15.5 0 2.096-.422 4.151-1.236 6.057l9.65 2.291 11.965-2.888a2.002 2.002 0 0 1 2.406 1.447l3 11.667c.082.318.084.652.007.972l-3 12.289a2.007 2.007 0 0 1-1.053 1.317 2.005 2.005 0 0 1-1.685.045 11.404 11.404 0 0 0-4.555-.943c-6.34 0-11.5 5.16-11.5 11.5 0 6.341 5.16 11.5 11.5 11.5 1.577 0 3.11-.317 4.555-.943a2 2 0 0 1 2.74 2.306l-2.884 11.936 2.874 11.046a2.002 2.002 0 0 1-1.936 2.504z"/>
        <path fill="#03BF3C" d="M106.472 176.148h69.16v-68.131l-9.39 2.372a1.999 1.999 0 0 1-.954.006l-8.926-2.128c.279 1.172.422 2.378.422 3.589 0 8.547-6.954 15.5-15.5 15.5-8.547 0-15.5-6.953-15.5-15.5 0-1.718.288-3.427.842-5.043l-9.136-2.304-10.132 2.418 2.517 10.211c.079.32.078.654-.003.972l-3 11.789a2.002 2.002 0 0 1-2.732 1.343 11.408 11.408 0 0 0-4.556-.943c-6.341 0-11.5 5.16-11.5 11.5 0 6.341 5.159 11.5 11.5 11.5 1.577 0 3.11-.317 4.556-.943a1.999 1.999 0 0 1 2.74 2.297l-2.885 12.185 2.477 9.31zm71.16 4h-72.698a2 2 0 0 1-1.933-1.486l-3-11.282a1.982 1.982 0 0 1-.013-.974l2.208-9.326c-.858.146-1.73.219-2.612.219-8.547 0-15.5-6.953-15.5-15.5s6.953-15.5 15.5-15.5c1.345 0 2.665.171 3.948.51l2.34-9.2-2.88-11.681a1.998 1.998 0 0 1 1.478-2.424l12.568-3c.313-.074.639-.072.954.006l11.896 3c.598.152 1.093.57 1.342 1.135a2.004 2.004 0 0 1-.071 1.755 11.514 11.514 0 0 0-1.375 5.456c0 6.341 5.159 11.5 11.5 11.5 6.34 0 11.5-5.159 11.5-11.5 0-1.903-.476-3.79-1.375-5.456a2 2 0 0 1 2.223-2.896l12.107 2.886 11.405-2.88a1.998 1.998 0 0 1 2.489 1.94v72.698a2 2 0 0 1-2 2z"/>
        <path fill="#FFF" d="M134.667 50.887H158"/>
        <path fill="#009DE1" d="M158 52.887h-23.333a2 2 0 0 1 0-4H158a2 2 0 0 1 0 4"/>
        <path fill="#FFF" d="M134.667 87.553H158"/>
        <path fill="#009DE1" d="M158 89.553h-23.333a2 2 0 0 1 0-4H158a2 2 0 0 1 0 4"/>
        <path fill="#000" d="M159.667 164.887a2 2 0 0 1-2-2v-23.334a2 2 0 0 1 4 0v23.334a2 2 0 0 1-2 2M123 164.887a2 2 0 0 1-2-2v-23.334a2 2 0 0 1 4 0v23.334a2 2 0 0 1-2 2"/>
        <path fill="#03BF3C" d="M74.667 163.553H51.334a2 2 0 0 1 0-4h23.333a2 2 0 0 1 0 4M74.667 126.887H51.334a2 2 0 0 1 0-4h23.333a2 2 0 0 1 0 4"/>
        <path fill="#000" d="M19.8 43.887a2 2 0 0 1-2-2V18.553a2 2 0 0 1 4 0v23.334a2 2 0 0 1-2 2M56.467 43.887a2 2 0 0 1-2-2V18.553a2 2 0 0 1 4 0v23.334a2 2 0 0 1-2 2"/>
    </g>
</svg>
