<svg xmlns="http://www.w3.org/2000/svg" width="194" height="194" viewBox="0 0 194 194">
    <g fill="none" fill-rule="evenodd">
        <path fill="#FFF" d="M-623-2404H817v4932H-623z"/>
        <path fill="#FFF" d="M137.362 128.167l-7.91 7.91-28.28-28.281 7.91-7.91z"/>
        <path stroke="#000" stroke-linecap="round" stroke-linejoin="round" stroke-width="4" d="M137.362 128.167l-7.91 7.91-28.28-28.281 7.91-7.91z"/>
        <path fill="#FFF" d="M188.815 178.895l-10.34 10.34a7.673 7.673 0 0 1-10.852 0l-43.14-43.139a7.674 7.674 0 0 1 0-10.853l10.341-10.34a7.673 7.673 0 0 1 10.852 0l43.14 43.14a7.674 7.674 0 0 1 0 10.852"/>
        <path stroke="#000" stroke-linecap="round" stroke-linejoin="round" stroke-width="4" d="M188.815 178.895l-10.34 10.34a7.673 7.673 0 0 1-10.852 0l-43.14-43.139a7.674 7.674 0 0 1 0-10.853l10.341-10.34a7.673 7.673 0 0 1 10.852 0l43.14 43.14a7.674 7.674 0 0 1 0 10.852z"/>
        <path fill="#FFF" d="M20.583 20.583c-24.777 24.777-24.777 64.95 0 89.727s64.949 24.777 89.728 0c24.777-24.778 24.777-64.95 0-89.727-24.78-24.777-64.951-24.777-89.728 0"/>
        <path stroke="#000" stroke-linecap="round" stroke-linejoin="round" stroke-width="4" d="M20.583 20.583c-24.777 24.777-24.777 64.95 0 89.727s64.949 24.777 89.728 0c24.777-24.778 24.777-64.95 0-89.727-24.78-24.777-64.951-24.777-89.728 0z"/>
        <path fill="#FFF" d="M29.883 29.883c-19.642 19.641-19.642 51.486 0 71.127 19.642 19.642 51.486 19.642 71.128 0 19.64-19.64 19.64-51.486 0-71.127-19.642-19.642-51.486-19.642-71.128 0"/>
        <path stroke="#009DE1" stroke-linecap="round" stroke-linejoin="round" stroke-width="4" d="M29.883 29.883c-19.642 19.641-19.642 51.486 0 71.127 19.642 19.642 51.486 19.642 71.128 0 19.64-19.64 19.64-51.486 0-71.127-19.642-19.642-51.486-19.642-71.128 0z"/>
        <path fill="#FFF" d="M160.832 181.11l14.272-14.273"/>
        <path stroke="#000" stroke-linecap="round" stroke-linejoin="round" stroke-width="4" d="M160.832 181.11l14.272-14.273"/>
        <path fill="#FFF" d="M152.014 131.933l-11.418 11.417"/>
        <path stroke="#000" stroke-linecap="round" stroke-linejoin="round" stroke-width="4" d="M152.014 131.933l-11.418 11.417M22.44 63.54s38.158-45.607 83.765 0M22.44 64.112s38.158 45.606 83.765 0M106.205 63.54l3.43 3.43"/>
        <path stroke="#03BF3C" stroke-linecap="round" stroke-linejoin="round" stroke-width="4" d="M49.803 63.54c0-8.019 6.5-14.52 14.52-14.52 8.017 0 14.517 6.501 14.517 14.52 0 8.018-6.5 14.518-14.518 14.518-8.019 0-14.519-6.5-14.519-14.519z"/>
        <path stroke="#000" stroke-linecap="round" stroke-linejoin="round" stroke-width="3" d="M58.626 63.54a5.696 5.696 0 0 1 5.696-5.696 5.695 5.695 0 1 1 0 11.391 5.696 5.696 0 0 1-5.696-5.696z"/>
    </g>
</svg>
